<?xml version="1.0" encoding="UTF-8" standalone="no"?>
<!-- Created with Inkscape (http://www.inkscape.org/) -->

<svg
   xmlns:dc="http://purl.org/dc/elements/1.1/"
   xmlns:cc="http://creativecommons.org/ns#"
   xmlns:rdf="http://www.w3.org/1999/02/22-rdf-syntax-ns#"
   xmlns:svg="http://www.w3.org/2000/svg"
   xmlns="http://www.w3.org/2000/svg"
   xmlns:sodipodi="http://sodipodi.sourceforge.net/DTD/sodipodi-0.dtd"
   xmlns:inkscape="http://www.inkscape.org/namespaces/inkscape"
   id="svg2"
   version="1.1"
   inkscape:version="0.91 r13725"
   width="678.75"
   height="280"
   viewBox="0 0 678.75 280"
   sodipodi:docname="INdAM logo.svg">
  <metadata
     id="metadata8">
    <rdf:RDF>
      <cc:Work
         rdf:about="">
        <dc:format>image/svg+xml</dc:format>
        <dc:type
           rdf:resource="http://purl.org/dc/dcmitype/StillImage" />
        <dc:title></dc:title>
      </cc:Work>
    </rdf:RDF>
  </metadata>
  <defs
     id="defs6" />
  <sodipodi:namedview
     pagecolor="#ffffff"
     bordercolor="#666666"
     borderopacity="1"
     objecttolerance="10"
     gridtolerance="10"
     guidetolerance="10"
     inkscape:pageopacity="0"
     inkscape:pageshadow="2"
     inkscape:window-width="1454"
     inkscape:window-height="766"
     id="namedview4"
     showgrid="false"
     fit-margin-top="0"
     fit-margin-left="0"
     fit-margin-right="0"
     fit-margin-bottom="0"
     inkscape:zoom="1.4906992"
     inkscape:cx="332.6928"
     inkscape:cy="152.36472"
     inkscape:window-x="0"
     inkscape:window-y="0"
     inkscape:window-maximized="0"
     inkscape:current-layer="svg2" />
  <path
     style="fill:#025088;fill-opacity:1"
     d="M 0,140 0,0 25.625,0 51.25,0 l 0,3.125 0,3.125 -15.543625,0 C 18.055164,6.25 14.740135,7.089494 12.67537,12.082344 11.580744,14.72928 11.294352,47.49427 11.542662,141.67094 l 0.332338,126.04593 3.507205,3.01657 c 3.316756,2.85276 4.385825,3.01656 19.6875,3.01656 l 16.180295,0 0,3.125 0,3.125 -25.625,0 L 0,280 0,140 Z m 627.5,136.875 0,-3.125 16.1803,0 c 15.30166,0 16.37074,-0.16381 19.6875,-3.01656 l 3.5072,-3.01657 0.36124,-124.17093 C 667.43493,75.251924 667.26839,17.544652 666.86617,15.307561 665.42486,7.2912043 662.81231,6.25 644.1393,6.25 l -16.6393,0 0,-3.125 0,-3.125 25.625,0 25.625,0 0,140 0,140 -25.625,0 -25.625,0 0,-3.125 z m -68.75,-79.21638 c 0,-1.54479 1.53676,-2.72332 4.84266,-3.71379 7.15689,-2.14427 15.07514,-9.7556 16.45774,-15.81983 1.52106,-6.67155 1.54445,-65.26433 0.0264,-66.20252 -0.64525,-0.39878 -1.62962,0.005 -2.1875,0.89796 -0.55787,0.89266 -4.67057,4.70137 -9.13932,8.46379 -4.46875,3.76242 -8.40625,7.12202 -8.75,7.46577 -1.13318,1.13318 -10.59775,9.27683 -17.43305,15 -3.69494,3.09375 -8.73718,7.44008 -11.205,9.6585 -2.46783,2.21843 -4.8961,4.04655 -5.39616,4.0625 -0.50007,0.016 -11.91289,-8.54912 -25.36183,-19.0335 -13.44894,-10.48437 -24.90594,-19.221 -25.45999,-19.41473 -0.55405,-0.19373 -0.90297,11.05627 -0.7754,25.00001 0.29584,32.33321 1.26954,35.02952 14.81339,41.02061 11.09613,4.90835 5.70628,6.27938 -16.36946,4.164 l -7.8125,-0.74863 0,-51.1665 c 0,-42.541502 0.28361,-50.997984 1.68251,-50.166872 0.92539,0.549786 16.1544,12.249612 33.84225,25.999612 17.68784,13.75 32.62155,25.16778 33.186,25.37284 0.9493,0.34487 49.9181,-40.84799 60.20795,-50.6473 2.49905,-2.379909 4.82598,-3.854254 5.17096,-3.276324 0.98733,1.654019 0.83153,104.780744 -0.16072,106.386234 -0.48845,0.79033 -9.02541,2.89791 -18.97101,4.68354 -9.94562,1.78561 -18.78607,3.47855 -19.64544,3.76206 -0.86443,0.28519 -1.5625,-0.4955 -1.5625,-1.74743 z m -476.704795,-0.5046 c -4.70465,-3.44011 -4.407275,-10.33781 3.341911,-77.51666 0.894696,-7.75625 3.219894,-8.12799 4.108515,-0.65685 2.318191,19.49033 5.579469,51.37913 6.275829,61.36507 0.81285,11.65648 0.71811,12.36328 -2.052529,15.3125 -3.184156,3.38937 -8.204494,4.03272 -11.673726,1.49595 z M 271.875,195.43139 c -11.2755,-5.91895 -18.28125,-17.84201 -18.28125,-31.11284 0,-14.70778 8.51174,-27.24526 22.8721,-33.68981 l 7.38442,-3.31393 -9.92116,-9.59491 c -12.14875,-11.74924 -14.71115,-17.70283 -10.73413,-24.940203 3.88707,-7.073686 9.26513,-9.23687 21.80502,-8.77048 12.94938,0.481619 21.30333,4.069259 24.33066,10.448905 2.29565,4.837718 1.62485,7.205228 -2.58497,9.123358 -3.96012,1.80435 -7.94683,-0.13848 -14.79283,-7.208953 -8.61344,-8.895846 -18.37957,-9.491131 -22.57601,-1.376098 -3.27529,6.333691 1.25105,11.174271 26.88688,28.753571 21.55297,14.77956 26.70166,44.00872 10.91186,61.94687 -9.19399,10.44493 -25.42224,14.92004 -35.30059,9.73452 z m 18.99358,-5.48573 c 14.53516,-5.06699 15.79775,-35.77461 2.17301,-52.85031 -3.83139,-4.80181 -6.36463,-5.54135 -10.93627,-3.19261 -9.76171,5.01517 -13.93898,14.69999 -13.11465,30.40565 0.67802,12.91791 4.49403,21.49741 11.00933,24.75217 5.11397,2.55472 5.89634,2.61843 10.86858,0.8851 z m -104.66909,-37.9811 -35.57449,-44.28544 -0.331,38.33755 c -0.37694,43.65724 -0.39989,43.54659 9.5,45.7859 9.6332,2.17899 5.3192,3.19743 -13.544,3.19743 -17.96236,0 -23.83959,-1.26696 -14.23534,-3.06873 2.48306,-0.46582 5.85806,-2.19036 7.5,-3.8323 l 2.98534,-2.98533 0,-44.18661 0,-44.186612 -4.0625,-3.836592 c -2.23438,-2.110125 -5.67575,-4.216593 -7.6475,-4.681043 -5.598,-1.318618 -2.97715,-2.27946 7.6135,-2.791229 16.68996,-0.806504 15.75586,-1.368024 31.73727,19.078466 16.1525,20.66539 21.22149,27.154 35.87867,45.92684 5.71693,7.32223 10.63881,13.31314 10.9375,13.31314 0.29868,0 0.52517,-15.60937 0.50331,-34.6875 -0.0449,-39.185054 -0.009,-39.025474 -9.01429,-40.22734 -2.92652,-0.390588 -5.17961,-1.27266 -5.00686,-1.96016 0.32375,-1.288386 28.51842,-2.245326 33.79953,-1.147171 3.85219,0.80103 2.25448,3.022171 -2.17392,3.022171 -1.94576,0 -4.86569,1.07489 -6.48874,2.388645 l -2.95097,2.388644 -0.35273,51.361361 c -0.2764,40.24802 -0.69303,51.36135 -1.92551,51.36135 -0.86503,0 -17.58131,-19.92845 -37.14727,-44.28544 z m 31.8106,25.04015 -0.2438,-6.74527 -31.69564,-40.75222 -31.69565,-40.752211 -6.5625,-0.0025 c -3.60938,-0.0014 -6.5625,0.296147 -6.5625,0.661166 0,0.607827 11.86701,15.440535 58.75,73.432255 9.28125,11.4804 17.18525,20.88035 17.56445,20.88876 0.37919,0.009 0.57974,-3.02006 0.44564,-6.72997 z M 326.25,193.79818 c 0,-0.661 2.25739,-1.80967 5.01641,-2.5526 10.67295,-2.87393 11.59299,-4.45008 33.85141,-57.99233 11.27895,-27.13128 20.8649,-48.9468 21.30212,-48.478927 0.43721,0.467872 8.2468,16.881927 17.35462,36.475677 28.58895,61.5036 29.33856,62.99188 33.48538,66.48119 2.1616,1.81886 5.63115,3.68061 7.71012,4.13723 C 454.36264,193.93137 447.12149,195 423.75,195 c -15.83334,0 -25,-0.45834 -25,-1.25 0,-0.6875 1.15294,-1.25 2.56208,-1.25 3.8384,0 9.65766,-3.39775 10.53078,-6.14873 0.45871,-1.44528 -0.87501,-6.25173 -3.29896,-11.88871 L 404.47491,165 l -22.1466,0 -22.1466,0 -3.94125,10.22001 c -4.81194,12.47775 -4.13349,15.53783 3.72338,16.79419 10.54532,1.68627 4.30453,2.9858 -14.33884,2.9858 -11.56551,0 -19.375,-0.48441 -19.375,-1.20182 z m 75.49745,-32.60022 c -0.16213,-2.31707 -19.63971,-46.20735 -20.48954,-46.17057 -0.3481,0.0151 -4.92735,10.6744 -10.1761,23.68741 l -9.54317,23.66001 5.79317,0.37509 c 3.18625,0.20631 12.26194,0.35169 20.16819,0.32306 11.79846,-0.0427 14.35214,-0.37877 14.24745,-1.875 z M 81.485701,97.451306 C 78.083065,94.281268 77.821676,87.477591 80.992288,84.608227 86.805965,79.346921 96.25,83.056157 96.25,90.600842 c 0,7.917708 -9.091081,12.135868 -14.764299,6.850464 z"
     id="path3344"
     inkscape:connector-curvature="0" />
</svg>
